<svg width="175" height="30" viewBox="0 0 175 30" fill="none" xmlns="http://www.w3.org/2000/svg">
<path d="M46.2394 15.9V16.1C46.2394 18.3 45.9327 19.8467 45.3194 20.74C44.706 21.62 43.7794 22.06 42.5394 22.06C41.9394 22.06 41.426 21.9667 40.9994 21.78C40.586 21.58 40.3194 21.3867 40.1994 21.2L40.0194 20.9C38.846 21.66 37.726 22.04 36.6594 22.04C35.606 22.04 34.7594 21.6733 34.1194 20.94C33.4927 20.1933 33.1794 18.9267 33.1794 17.14C33.1794 15.34 33.4727 14.0267 34.0594 13.2C34.646 12.3733 35.6594 11.96 37.0994 11.96C37.6327 11.96 38.206 12.08 38.8194 12.32L39.1394 12.46V12.18H41.2994V15.86C41.2994 17.8867 41.366 19.12 41.4994 19.56C41.5394 19.72 41.6127 19.86 41.7194 19.98C41.826 20.1 41.9327 20.1733 42.0394 20.2C42.1594 20.2267 42.3594 20.24 42.6394 20.24C42.9194 20.24 43.166 20.1467 43.3794 19.96C43.8327 19.5467 44.0594 18.26 44.0594 16.1V15.88C44.0594 13.6 43.5394 11.9467 42.4994 10.92C41.4727 9.89333 39.806 9.38 37.4994 9.38C35.1927 9.38 33.446 10 32.2594 11.24C31.086 12.48 30.4994 14.38 30.4994 16.94C30.4994 19.4867 31.0394 21.3333 32.1194 22.48C33.2127 23.64 35.0127 24.22 37.5194 24.22L40.3794 24.04L40.4794 25.94C39.2527 26.06 38.266 26.12 37.5194 26.12C35.986 26.12 34.6727 25.9667 33.5794 25.66C32.486 25.3667 31.5394 24.8667 30.7394 24.16C29.1394 22.76 28.3394 20.3 28.3394 16.78C28.3394 13.6467 29.1394 11.3133 30.7394 9.78C32.3527 8.24667 34.6194 7.48 37.5394 7.48C43.3394 7.48 46.2394 10.2867 46.2394 15.9ZM36.9994 20.14C37.5594 20.14 38.3194 19.9133 39.2794 19.46C39.186 18.9267 39.1394 18.0267 39.1394 16.76V14.16C38.4727 13.96 37.9394 13.86 37.5394 13.86C36.686 13.86 36.1127 14.1067 35.8194 14.6C35.526 15.08 35.3794 15.8933 35.3794 17.04C35.3794 19.1067 35.9194 20.14 36.9994 20.14ZM48.2916 12H50.4316L52.0116 20.14H52.4116L54.3116 12.2H56.5516L58.4516 20.14H58.8516L60.4116 12H62.5716L60.4516 22H56.9916L55.4316 15.14L53.8716 22H50.4116L48.2916 12ZM73.3831 7.84V22H71.2231V21.48C70.2498 21.9733 69.3565 22.22 68.5431 22.22C67.2365 22.22 66.2765 21.8267 65.6631 21.04C65.0631 20.2533 64.7631 18.9333 64.7631 17.08C64.7631 15.2267 65.0965 13.88 65.7631 13.04C66.4431 12.2 67.4965 11.78 68.9231 11.78C69.4031 11.78 70.1631 11.8667 71.2031 12.04V7.84H73.3831ZM70.8631 19.92L71.2031 19.78V13.86C70.4031 13.7267 69.6631 13.66 68.9831 13.66C67.6365 13.66 66.9631 14.78 66.9631 17.02C66.9631 18.2467 67.1165 19.1 67.4231 19.58C67.7431 20.0467 68.2431 20.28 68.9231 20.28C69.6031 20.28 70.2498 20.16 70.8631 19.92ZM83.7639 14.06C82.1906 13.8467 81.0506 13.74 80.3439 13.74C79.6372 13.74 79.1439 13.8267 78.8639 14C78.5972 14.16 78.4639 14.42 78.4639 14.78C78.4639 15.14 78.6106 15.3933 78.9039 15.54C79.2106 15.6867 79.9172 15.86 81.0239 16.06C82.1439 16.2467 82.9372 16.5467 83.4039 16.96C83.8706 17.3733 84.1039 18.1067 84.1039 19.16C84.1039 20.2133 83.7639 20.9867 83.0839 21.48C82.4172 21.9733 81.4372 22.22 80.1439 22.22C79.3306 22.22 78.3039 22.1067 77.0639 21.88L76.4439 21.78L76.5239 19.96C78.1239 20.1733 79.2772 20.28 79.9839 20.28C80.6906 20.28 81.1906 20.1933 81.4839 20.02C81.7906 19.8467 81.9439 19.56 81.9439 19.16C81.9439 18.76 81.7972 18.4867 81.5039 18.34C81.2239 18.18 80.5372 18.0133 79.4439 17.84C78.3639 17.6533 77.5706 17.3667 77.0639 16.98C76.5572 16.5933 76.3039 15.8867 76.3039 14.86C76.3039 13.8333 76.6506 13.0667 77.3439 12.56C78.0506 12.0533 78.9506 11.8 80.0439 11.8C80.8972 11.8 81.9439 11.9067 83.1839 12.12L83.8039 12.24L83.7639 14.06ZM94.3989 15.08V19.64C94.4122 19.9333 94.4856 20.1533 94.6189 20.3C94.7656 20.4333 94.9856 20.52 95.2789 20.56L95.2189 22.22C94.0722 22.22 93.1856 21.9733 92.5589 21.48C91.4922 21.9733 90.4189 22.22 89.3389 22.22C87.3522 22.22 86.3589 21.16 86.3589 19.04C86.3589 18.0267 86.6256 17.2933 87.1589 16.84C87.7056 16.3867 88.5389 16.1133 89.6589 16.02L92.2389 15.8V15.08C92.2389 14.5467 92.1189 14.1733 91.8789 13.96C91.6522 13.7467 91.3122 13.64 90.8589 13.64C90.0056 13.64 88.9389 13.6933 87.6589 13.8L87.0189 13.84L86.9389 12.3C88.3922 11.9533 89.7256 11.78 90.9389 11.78C92.1656 11.78 93.0456 12.0467 93.5789 12.58C94.1256 13.1 94.3989 13.9333 94.3989 15.08ZM89.9189 17.56C88.9989 17.64 88.5389 18.14 88.5389 19.06C88.5389 19.98 88.9456 20.44 89.7589 20.44C90.4256 20.44 91.1322 20.3333 91.8789 20.12L92.2389 20V17.34L89.9189 17.56ZM97.9356 26.3V12H100.096V12.62C101.016 12.06 101.876 11.78 102.676 11.78C103.996 11.78 104.962 12.1867 105.576 13C106.189 13.8 106.496 15.1533 106.496 17.06C106.496 18.9533 106.142 20.2867 105.436 21.06C104.742 21.8333 103.602 22.22 102.016 22.22C101.469 22.22 100.836 22.16 100.116 22.04V26.3H97.9356ZM102.296 13.72C101.669 13.72 101.042 13.86 100.416 14.14L100.116 14.28V20.18C100.649 20.2867 101.236 20.34 101.876 20.34C102.782 20.34 103.409 20.08 103.756 19.56C104.102 19.04 104.276 18.1533 104.276 16.9C104.276 14.78 103.616 13.72 102.296 13.72ZM109.478 22V12H111.638V13.2C112.771 12.4667 113.904 11.9933 115.038 11.78V13.96C113.891 14.1867 112.911 14.48 112.098 14.84L111.658 15.02V22H109.478ZM117.966 13.08C118.66 12.2133 119.806 11.78 121.406 11.78C123.006 11.78 124.146 12.2133 124.826 13.08C125.52 13.9467 125.866 15.2467 125.866 16.98C125.866 18.7133 125.533 20.02 124.866 20.9C124.2 21.78 123.046 22.22 121.406 22.22C119.766 22.22 118.613 21.78 117.946 20.9C117.28 20.02 116.946 18.7133 116.946 16.98C116.946 15.2467 117.286 13.9467 117.966 13.08ZM119.606 19.58C119.913 20.1133 120.513 20.38 121.406 20.38C122.3 20.38 122.9 20.1133 123.206 19.58C123.513 19.0467 123.666 18.1733 123.666 16.96C123.666 15.7467 123.5 14.8867 123.166 14.38C122.846 13.8733 122.26 13.62 121.406 13.62C120.553 13.62 119.96 13.8733 119.626 14.38C119.306 14.8867 119.146 15.7467 119.146 16.96C119.146 18.1733 119.3 19.0467 119.606 19.58ZM137.572 23.36C137.572 25.5467 135.992 26.64 132.832 26.64C131.312 26.64 130.185 26.4333 129.452 26.02C128.718 25.6067 128.352 24.8533 128.352 23.76C128.352 23.2667 128.472 22.84 128.712 22.48C128.952 22.1333 129.338 21.7533 129.872 21.34C129.432 21.0467 129.212 20.56 129.212 19.88C129.212 19.6133 129.392 19.18 129.752 18.58L129.932 18.28C128.972 17.7067 128.492 16.7067 128.492 15.28C128.492 14.08 128.852 13.2 129.572 12.64C130.292 12.08 131.265 11.8 132.492 11.8C133.078 11.8 133.658 11.8667 134.232 12L134.532 12.06L137.632 11.98V13.74L135.972 13.64C136.332 14.1067 136.512 14.6533 136.512 15.28C136.512 16.5867 136.178 17.4933 135.512 18C134.858 18.4933 133.832 18.74 132.432 18.74C132.085 18.74 131.792 18.7133 131.552 18.66C131.365 19.1133 131.272 19.4667 131.272 19.72C131.272 19.96 131.392 20.1267 131.632 20.22C131.885 20.3133 132.485 20.3667 133.432 20.38C135.018 20.3933 136.105 20.6067 136.692 21.02C137.278 21.4333 137.572 22.2133 137.572 23.36ZM130.492 23.56C130.492 24.0267 130.678 24.36 131.052 24.56C131.425 24.76 132.065 24.86 132.972 24.86C134.585 24.86 135.392 24.4 135.392 23.48C135.392 22.96 135.245 22.6267 134.952 22.48C134.672 22.3467 134.105 22.2733 133.252 22.26L131.292 22.14C130.998 22.38 130.792 22.6 130.672 22.8C130.552 23.0133 130.492 23.2667 130.492 23.56ZM130.652 15.28C130.652 15.8933 130.798 16.3467 131.092 16.64C131.385 16.92 131.858 17.06 132.512 17.06C133.165 17.06 133.632 16.92 133.912 16.64C134.205 16.3467 134.352 15.8933 134.352 15.28C134.352 14.6667 134.205 14.22 133.912 13.94C133.618 13.6467 133.145 13.5 132.492 13.5C131.265 13.5 130.652 14.0933 130.652 15.28ZM140.14 22V12H142.3V13.2C143.433 12.4667 144.566 11.9933 145.7 11.78V13.96C144.553 14.1867 143.573 14.48 142.76 14.84L142.32 15.02V22H140.14ZM155.566 15.08V19.64C155.579 19.9333 155.653 20.1533 155.786 20.3C155.933 20.4333 156.153 20.52 156.446 20.56L156.386 22.22C155.239 22.22 154.353 21.9733 153.726 21.48C152.659 21.9733 151.586 22.22 150.506 22.22C148.519 22.22 147.526 21.16 147.526 19.04C147.526 18.0267 147.793 17.2933 148.326 16.84C148.873 16.3867 149.706 16.1133 150.826 16.02L153.406 15.8V15.08C153.406 14.5467 153.286 14.1733 153.046 13.96C152.819 13.7467 152.479 13.64 152.026 13.64C151.173 13.64 150.106 13.6933 148.826 13.8L148.186 13.84L148.106 12.3C149.559 11.9533 150.893 11.78 152.106 11.78C153.333 11.78 154.213 12.0467 154.746 12.58C155.293 13.1 155.566 13.9333 155.566 15.08ZM151.086 17.56C150.166 17.64 149.706 18.14 149.706 19.06C149.706 19.98 150.113 20.44 150.926 20.44C151.593 20.44 152.299 20.3333 153.046 20.12L153.406 20V17.34L151.086 17.56ZM161.283 22H159.103V12H161.263V12.62C162.209 12.06 163.076 11.78 163.863 11.78C165.023 11.78 165.869 12.1067 166.403 12.76C167.616 12.1067 168.823 11.78 170.023 11.78C171.223 11.78 172.069 12.1533 172.563 12.9C173.056 13.6333 173.303 14.88 173.303 16.64V22H171.143V16.7C171.143 15.62 171.029 14.8533 170.803 14.4C170.589 13.9467 170.136 13.72 169.443 13.72C168.843 13.72 168.196 13.8533 167.503 14.12L167.163 14.26C167.269 14.5267 167.323 15.38 167.323 16.82V22H165.163V16.86C165.163 15.6733 165.056 14.8533 164.843 14.4C164.629 13.9467 164.163 13.72 163.443 13.72C162.776 13.72 162.156 13.8533 161.583 14.12L161.283 14.24V22Z" fill="black"/>
<path d="M21 9.01226C20.2271 9.3542 19.3968 9.58432 18.5253 9.68811C19.4154 9.15708 20.0978 8.3163 20.4193 7.31379C19.5874 7.80539 18.6651 8.16262 17.6829 8.35572C16.8971 7.52137 15.7777 7 14.5387 7C12.1593 7 10.2306 8.92215 10.2306 11.2916C10.2306 11.628 10.2694 11.9562 10.3421 12.2692C6.76174 12.0906 3.58763 10.3817 1.46187 7.78447C1.09196 8.41848 0.879543 9.15547 0.879543 9.94316C0.879543 11.4316 1.63955 12.7455 2.79532 13.5147C2.08942 13.4922 1.42471 13.2991 0.844006 12.978C0.844006 12.9965 0.844006 13.0134 0.844006 13.0319C0.844006 15.1118 2.32849 16.8465 4.29999 17.2399C3.93896 17.3381 3.55775 17.3904 3.16442 17.3904C2.88739 17.3904 2.61682 17.363 2.35433 17.3139C2.90273 19.0188 4.49383 20.2603 6.37891 20.2949C4.90493 21.4463 3.04731 22.1326 1.02815 22.1326C0.680858 22.1326 0.337602 22.1125 0 22.0722C1.90689 23.2896 4.17076 24 6.60425 24C14.529 24 18.8613 17.4604 18.8613 11.7889C18.8613 11.603 18.8573 11.418 18.8492 11.2337C19.6916 10.6279 20.4225 9.87236 21 9.01226Z" fill="black"/>
</svg>
