<svg width="41" height="48" viewBox="0 0 41 48" fill="none" xmlns="http://www.w3.org/2000/svg">
<path d="M39.25 0.479004H7.375C5.63452 0.479004 3.96532 1.17041 2.73461 2.40112C1.5039 3.63182 0.8125 5.30102 0.8125 7.0415V46.4165C0.8125 46.6651 0.911272 46.9036 1.08709 47.0794C1.2629 47.2552 1.50136 47.354 1.75 47.354H35.5C35.7486 47.354 35.9871 47.2552 36.1629 47.0794C36.3387 46.9036 36.4375 46.6651 36.4375 46.4165C36.4375 46.1679 36.3387 45.9294 36.1629 45.7536C35.9871 45.5778 35.7486 45.479 35.5 45.479H2.6875V44.5415C2.6875 43.2983 3.18136 42.106 4.06044 41.2269C4.93951 40.3479 6.1318 39.854 7.375 39.854H39.25C39.4986 39.854 39.7371 39.7552 39.9129 39.5794C40.0887 39.4036 40.1875 39.1651 40.1875 38.9165V1.4165C40.1875 1.16786 40.0887 0.929407 39.9129 0.753591C39.7371 0.577776 39.4986 0.479004 39.25 0.479004ZM17.6875 2.354H30.8125V22.0415L24.8102 17.5415C24.6479 17.4198 24.4505 17.354 24.2477 17.354C24.0448 17.354 23.8474 17.4198 23.6852 17.5415L17.6875 22.0415V2.354ZM38.3125 37.979H7.375C6.50155 37.9787 5.63686 38.1531 4.83184 38.4921C4.02681 38.831 3.29773 39.3275 2.6875 39.9524V7.0415C2.6875 5.7983 3.18136 4.60602 4.06044 3.72694C4.93951 2.84786 6.1318 2.354 7.375 2.354H15.8125V23.9165C15.8125 24.0906 15.861 24.2613 15.9525 24.4094C16.044 24.5575 16.175 24.6772 16.3307 24.755C16.4865 24.8329 16.6608 24.8659 16.8342 24.8502C17.0076 24.8346 17.1732 24.771 17.3125 24.6665L24.25 19.4634L31.1898 24.6665C31.3521 24.7882 31.5495 24.854 31.7523 24.854C32.001 24.854 32.2394 24.7552 32.4153 24.5794C32.5911 24.4036 32.6898 24.1651 32.6898 23.9165V2.354H38.3148L38.3125 37.979Z" fill="white"/>
<path d="M17.6875 2.354H30.8125V22.0415L24.8102 17.5415C24.6479 17.4198 24.4505 17.354 24.2477 17.354C24.0448 17.354 23.8474 17.4198 23.6852 17.5415L17.6875 22.0415V2.354Z" fill="#717171"/>
</svg>
