<svg width="45" height="48" viewBox="0 0 45 48" fill="none" xmlns="http://www.w3.org/2000/svg">
<path d="M41.25 4.354H34.6875V1.5415C34.6875 1.29286 34.5887 1.05441 34.4129 0.878591C34.2371 0.702776 33.9986 0.604004 33.75 0.604004C33.5014 0.604004 33.2629 0.702776 33.0871 0.878591C32.9113 1.05441 32.8125 1.29286 32.8125 1.5415V4.354H12.1875V1.5415C12.1875 1.29286 12.0887 1.05441 11.9129 0.878591C11.7371 0.702776 11.4986 0.604004 11.25 0.604004C11.0014 0.604004 10.7629 0.702776 10.5871 0.878591C10.4113 1.05441 10.3125 1.29286 10.3125 1.5415V4.354H3.75C3.00408 4.354 2.28871 4.65032 1.76126 5.17777C1.23382 5.70521 0.9375 6.42058 0.9375 7.1665V44.6665C0.9375 45.4124 1.23382 46.1278 1.76126 46.6552C2.28871 47.1827 3.00408 47.479 3.75 47.479H41.25C41.9959 47.479 42.7113 47.1827 43.2387 46.6552C43.7662 46.1278 44.0625 45.4124 44.0625 44.6665V7.1665C44.0625 6.42058 43.7662 5.70521 43.2387 5.17777C42.7113 4.65032 41.9959 4.354 41.25 4.354ZM3.75 6.229H10.3125V9.0415C10.3125 9.29014 10.4113 9.5286 10.5871 9.70442C10.7629 9.88023 11.0014 9.979 11.25 9.979C11.4986 9.979 11.7371 9.88023 11.9129 9.70442C12.0887 9.5286 12.1875 9.29014 12.1875 9.0415V6.229H32.8125V9.0415C32.8125 9.29014 32.9113 9.5286 33.0871 9.70442C33.2629 9.88023 33.5014 9.979 33.75 9.979C33.9986 9.979 34.2371 9.88023 34.4129 9.70442C34.5887 9.5286 34.6875 9.29014 34.6875 9.0415V6.229H41.25C41.4986 6.229 41.7371 6.32778 41.9129 6.50359C42.0887 6.67941 42.1875 6.91786 42.1875 7.1665V15.604H2.8125V7.1665C2.8125 6.91786 2.91127 6.67941 3.08709 6.50359C3.2629 6.32778 3.50136 6.229 3.75 6.229ZM41.25 45.604H3.75C3.50136 45.604 3.2629 45.5052 3.08709 45.3294C2.91127 45.1536 2.8125 44.9151 2.8125 44.6665V17.479H42.1875V44.6665C42.1875 44.9151 42.0887 45.1536 41.9129 45.3294C41.7371 45.5052 41.4986 45.604 41.25 45.604Z" fill="white"/>
<path d="M17.8121 39.0412V24.0412C17.8122 23.8813 17.7715 23.7241 17.6937 23.5844C17.6159 23.4447 17.5036 23.3272 17.3677 23.2431C17.2317 23.1591 17.0764 23.1111 16.9167 23.104C16.757 23.0968 16.5981 23.1306 16.4551 23.2021L12.7051 25.0771C12.4826 25.1884 12.3133 25.3835 12.2347 25.6195C12.156 25.8556 12.1743 26.1132 12.2856 26.3357C12.3968 26.5583 12.5919 26.7275 12.828 26.8062C13.064 26.8848 13.3216 26.8665 13.5442 26.7553L15.9371 25.5576V39.0412C15.9371 39.2898 16.0359 39.5283 16.2117 39.7041C16.3875 39.8799 16.626 39.9787 16.8746 39.9787C17.1233 39.9787 17.3617 39.8799 17.5375 39.7041C17.7134 39.5283 17.8121 39.2898 17.8121 39.0412Z" fill="#717171"/>
<path d="M26.2496 38.1037L31.8746 30.6037C32.4864 29.794 32.8157 28.806 32.8121 27.7912C32.8121 26.7594 32.4716 25.7564 31.8434 24.9378C31.2152 24.1192 30.3345 23.5307 29.3379 23.2636C28.3412 22.9966 27.2842 23.0658 26.3309 23.4607C25.3776 23.8555 24.5812 24.5539 24.0652 25.4474C23.9532 25.6617 23.9282 25.911 23.9956 26.1432C24.063 26.3754 24.2174 26.5727 24.4268 26.6937C24.6361 26.8147 24.8841 26.8501 25.119 26.7926C25.3539 26.7351 25.5574 26.589 25.6871 26.3849C25.9963 25.8479 26.4742 25.4279 27.0465 25.1904C27.6189 24.9529 28.2537 24.911 28.8523 25.0713C29.4509 25.2317 29.9798 25.5852 30.3568 26.0771C30.7338 26.5689 30.9378 27.1715 30.9371 27.7912C30.9394 28.403 30.74 28.9985 30.3699 29.4857L23.6246 38.4787C23.5202 38.618 23.4565 38.7836 23.4409 38.957C23.4253 39.1304 23.4582 39.3047 23.5361 39.4605C23.614 39.6162 23.7337 39.7472 23.8818 39.8387C24.0299 39.9302 24.2005 39.9787 24.3746 39.9787H31.8746C32.1233 39.9787 32.3617 39.8799 32.5375 39.7041C32.7134 39.5283 32.8121 39.2898 32.8121 39.0412C32.8121 38.7926 32.7134 38.5541 32.5375 38.3783C32.3617 38.2025 32.1233 38.1037 31.8746 38.1037H26.2496Z" fill="#717171"/>
</svg>
