<svg width="47" height="48" viewBox="0 0 47 48" fill="none" xmlns="http://www.w3.org/2000/svg">
<path d="M0.437504 22.7914C0.535996 22.8653 0.648072 22.919 0.767335 22.9496C0.886597 22.9801 1.01071 22.9869 1.13259 22.9695C1.25446 22.9521 1.37172 22.9108 1.47765 22.8481C1.58359 22.7854 1.67614 22.7024 1.75 22.6039C2.97256 20.9738 4.55785 19.6508 6.38033 18.7396C8.2028 17.8283 10.2124 17.3539 12.25 17.3539C14.2876 17.3539 16.2972 17.8283 18.1197 18.7396C19.9422 19.6508 21.5275 20.9738 22.75 22.6039C22.8353 22.7225 22.9476 22.8191 23.0776 22.8857C23.2076 22.9523 23.3516 22.987 23.4977 22.987C23.6437 22.987 23.7877 22.9523 23.9177 22.8857C24.0477 22.8191 24.16 22.7225 24.2453 22.6039C25.4679 20.9738 27.0532 19.6508 28.8756 18.7396C30.6981 17.8283 32.7077 17.3539 34.7453 17.3539C36.7829 17.3539 38.7925 17.8283 40.615 18.7396C42.4375 19.6508 44.0228 20.9738 45.2453 22.6039C45.3192 22.7024 45.4117 22.7854 45.5177 22.8481C45.6236 22.9108 45.7409 22.9521 45.8627 22.9695C45.9846 22.9869 46.1087 22.9801 46.228 22.9496C46.3473 22.919 46.4593 22.8653 46.5578 22.7914C46.6563 22.7176 46.7393 22.625 46.802 22.5191C46.8647 22.4131 46.906 22.2959 46.9234 22.174C46.9408 22.0521 46.934 21.928 46.9035 21.8088C46.8729 21.6895 46.8192 21.5774 46.7453 21.4789C44.8438 18.9256 42.1743 17.0487 39.1281 16.1235C40.7013 15.1671 41.9186 13.7225 42.5942 12.0099C43.2698 10.2973 43.3667 8.41066 42.8701 6.63783C42.3736 4.865 41.3108 3.30324 39.8438 2.19074C38.3769 1.07824 36.5864 0.476074 34.7453 0.476074C32.9043 0.476074 31.1137 1.07824 29.6468 2.19074C28.1799 3.30324 27.1171 4.865 26.6205 6.63783C26.1239 8.41066 26.2209 10.2973 26.8965 12.0099C27.5721 13.7225 28.7893 15.1671 30.3625 16.1235C27.7017 16.9356 25.3223 18.4785 23.4953 20.5766C21.6688 18.478 19.2892 16.935 16.6281 16.1235C18.2013 15.1671 19.4186 13.7225 20.0942 12.0099C20.7698 10.2973 20.8667 8.41066 20.3701 6.63783C19.8736 4.865 18.8108 3.30324 17.3438 2.19074C15.8769 1.07824 14.0864 0.476074 12.2453 0.476074C10.4043 0.476074 8.61372 1.07824 7.1468 2.19074C5.67988 3.30324 4.61708 4.865 4.12052 6.63783C3.62395 8.41066 3.72086 10.2973 4.39647 12.0099C5.07208 13.7225 6.28931 15.1671 7.8625 16.1235C4.8185 17.0505 2.15096 18.9271 0.250004 21.4789C0.176135 21.5774 0.122389 21.6895 0.0918349 21.8088C0.0612803 21.928 0.0545152 22.0521 0.0719262 22.174C0.0893372 22.2959 0.130583 22.4131 0.193309 22.5191C0.256035 22.625 0.339013 22.7176 0.437504 22.7914ZM28.1875 8.91642C28.1875 7.61848 28.5724 6.34969 29.2935 5.27049C30.0146 4.1913 31.0395 3.35016 32.2386 2.85346C33.4378 2.35676 34.7573 2.2268 36.0303 2.48002C37.3033 2.73323 38.4726 3.35825 39.3904 4.27603C40.3082 5.19382 40.9332 6.36314 41.1864 7.63614C41.4396 8.90914 41.3097 10.2286 40.813 11.4278C40.3163 12.6269 39.4751 13.6518 38.3959 14.3729C37.3167 15.094 36.0479 15.4789 34.75 15.4789C33.0095 15.4789 31.3403 14.7875 30.1096 13.5568C28.8789 12.3261 28.1875 10.6569 28.1875 8.91642ZM5.6875 8.91642C5.6875 7.61848 6.07239 6.34969 6.79349 5.27049C7.51458 4.1913 8.53951 3.35016 9.73865 2.85346C10.9378 2.35676 12.2573 2.2268 13.5303 2.48002C14.8033 2.73323 15.9726 3.35825 16.8904 4.27603C17.8082 5.19382 18.4332 6.36314 18.6864 7.63614C18.9396 8.90914 18.8097 10.2286 18.313 11.4278C17.8163 12.6269 16.9751 13.6518 15.8959 14.3729C14.8167 15.094 13.5479 15.4789 12.25 15.4789C10.5095 15.4789 8.84033 14.7875 7.60962 13.5568C6.37891 12.3261 5.6875 10.6569 5.6875 8.91642ZM39.1328 40.4985C40.706 39.5421 41.9232 38.0975 42.5989 36.3849C43.2745 34.6722 43.3714 32.7857 42.8748 31.0128C42.3782 29.24 41.3154 27.6782 39.8485 26.5657C38.3816 25.4532 36.5911 24.8511 34.75 24.8511C32.9089 24.8511 31.1184 25.4532 29.6515 26.5657C28.1846 27.6782 27.1218 29.24 26.6252 31.0128C26.1286 32.7857 26.2256 34.6722 26.9012 36.3849C27.5768 38.0975 28.794 39.5421 30.3672 40.4985C27.7077 41.3073 25.3285 42.8461 23.5 44.9399C21.6719 42.8456 19.2926 41.3068 16.6328 40.4985C18.206 39.5421 19.4232 38.0975 20.0989 36.3849C20.7745 34.6722 20.8714 32.7857 20.3748 31.0128C19.8782 29.24 18.8154 27.6782 17.3485 26.5657C15.8816 25.4532 14.0911 24.8511 12.25 24.8511C10.4089 24.8511 8.61841 25.4532 7.15149 26.5657C5.68456 27.6782 4.62177 29.24 4.1252 31.0128C3.62864 32.7857 3.72555 34.6722 4.40116 36.3849C5.07677 38.0975 6.294 39.5421 7.86719 40.4985C4.82148 41.4246 2.15217 43.3013 0.250004 45.8539C0.10082 46.0528 0.0367631 46.3029 0.0719262 46.549C0.107089 46.7951 0.238592 47.0172 0.437504 47.1664C0.636417 47.3156 0.886445 47.3797 1.13259 47.3445C1.37873 47.3093 1.60082 47.1778 1.75 46.9789C2.97256 45.3488 4.55785 44.0258 6.38033 43.1146C8.2028 42.2033 10.2124 41.7289 12.25 41.7289C14.2876 41.7289 16.2972 42.2033 18.1197 43.1146C19.9422 44.0258 21.5275 45.3488 22.75 46.9789C22.8353 47.0975 22.9476 47.1941 23.0776 47.2607C23.2076 47.3273 23.3516 47.362 23.4977 47.362C23.6437 47.362 23.7877 47.3273 23.9177 47.2607C24.0477 47.1941 24.16 47.0975 24.2453 46.9789C25.4679 45.3488 27.0532 44.0258 28.8756 43.1146C30.6981 42.2033 32.7077 41.7289 34.7453 41.7289C36.7829 41.7289 38.7925 42.2033 40.615 43.1146C42.4375 44.0258 44.0228 45.3488 45.2453 46.9789C45.3945 47.1778 45.6166 47.3093 45.8627 47.3445C46.1089 47.3797 46.3589 47.3156 46.5578 47.1664C46.7567 47.0172 46.8882 46.7951 46.9234 46.549C46.9586 46.3029 46.8945 46.0528 46.7453 45.8539C44.8451 43.3014 42.1773 41.4246 39.1328 40.4985ZM5.6875 33.2914C5.6875 31.9935 6.07239 30.7247 6.79349 29.6455C7.51458 28.5663 8.53951 27.7252 9.73865 27.2285C10.9378 26.7318 12.2573 26.6018 13.5303 26.855C14.8033 27.1082 15.9726 27.7332 16.8904 28.651C17.8082 29.5688 18.4332 30.7381 18.6864 32.0111C18.9396 33.2841 18.8097 34.6036 18.313 35.8028C17.8163 37.0019 16.9751 38.0268 15.8959 38.7479C14.8167 39.469 13.5479 39.8539 12.25 39.8539C10.5095 39.8539 8.84033 39.1625 7.60962 37.9318C6.37891 36.7011 5.6875 35.0319 5.6875 33.2914ZM28.1875 33.2914C28.1875 31.9935 28.5724 30.7247 29.2935 29.6455C30.0146 28.5663 31.0395 27.7252 32.2386 27.2285C33.4378 26.7318 34.7573 26.6018 36.0303 26.855C37.3033 27.1082 38.4726 27.7332 39.3904 28.651C40.3082 29.5688 40.9332 30.7381 41.1864 32.0111C41.4396 33.2841 41.3097 34.6036 40.813 35.8028C40.3163 37.0019 39.4751 38.0268 38.3959 38.7479C37.3167 39.469 36.0479 39.8539 34.75 39.8539C33.0095 39.8539 31.3403 39.1625 30.1096 37.9318C28.8789 36.7011 28.1875 35.0319 28.1875 33.2914Z" fill="white"/>
<path d="M28.1875 8.91642C28.1875 7.61848 28.5724 6.34969 29.2935 5.27049C30.0146 4.1913 31.0395 3.35016 32.2386 2.85346C33.4378 2.35676 34.7573 2.2268 36.0303 2.48002C37.3033 2.73323 38.4726 3.35825 39.3904 4.27603C40.3082 5.19382 40.9332 6.36314 41.1864 7.63614C41.4396 8.90914 41.3097 10.2286 40.813 11.4278C40.3163 12.6269 39.4751 13.6518 38.3959 14.3729C37.3167 15.094 36.0479 15.4789 34.75 15.4789C33.0095 15.4789 31.3403 14.7875 30.1096 13.5568C28.8789 12.3261 28.1875 10.6569 28.1875 8.91642Z" fill="#717171"/>
<path d="M5.6875 8.91642C5.6875 7.61848 6.07239 6.34969 6.79349 5.27049C7.51458 4.1913 8.53951 3.35016 9.73865 2.85346C10.9378 2.35676 12.2573 2.2268 13.5303 2.48002C14.8033 2.73323 15.9726 3.35825 16.8904 4.27603C17.8082 5.19382 18.4332 6.36314 18.6864 7.63614C18.9396 8.90914 18.8097 10.2286 18.313 11.4278C17.8163 12.6269 16.9751 13.6518 15.8959 14.3729C14.8167 15.094 13.5479 15.4789 12.25 15.4789C10.5095 15.4789 8.84033 14.7875 7.60962 13.5568C6.37891 12.3261 5.6875 10.6569 5.6875 8.91642Z" fill="#717171"/>
<path d="M5.6875 33.2914C5.6875 31.9935 6.07239 30.7247 6.79349 29.6455C7.51458 28.5663 8.53951 27.7252 9.73865 27.2285C10.9378 26.7318 12.2573 26.6018 13.5303 26.855C14.8033 27.1082 15.9726 27.7332 16.8904 28.651C17.8082 29.5688 18.4332 30.7381 18.6864 32.0111C18.9396 33.2841 18.8097 34.6036 18.313 35.8028C17.8163 37.0019 16.9751 38.0268 15.8959 38.7479C14.8167 39.469 13.5479 39.8539 12.25 39.8539C10.5095 39.8539 8.84033 39.1625 7.60962 37.9318C6.37891 36.7011 5.6875 35.0319 5.6875 33.2914Z" fill="#717171"/>
<path d="M28.1875 33.2914C28.1875 31.9935 28.5724 30.7247 29.2935 29.6455C30.0146 28.5663 31.0395 27.7252 32.2386 27.2285C33.4378 26.7318 34.7573 26.6018 36.0303 26.855C37.3033 27.1082 38.4726 27.7332 39.3904 28.651C40.3082 29.5688 40.9332 30.7381 41.1864 32.0111C41.4396 33.2841 41.3097 34.6036 40.813 35.8028C40.3163 37.0019 39.4751 38.0268 38.3959 38.7479C37.3167 39.469 36.0479 39.8539 34.75 39.8539C33.0095 39.8539 31.3403 39.1625 30.1096 37.9318C28.8789 36.7011 28.1875 35.0319 28.1875 33.2914Z" fill="#717171"/>
</svg>
