<svg width="35" height="37" viewBox="0 0 35 37" fill="none" xmlns="http://www.w3.org/2000/svg">
<path id="&#226;&#128;&#156;" d="M14.812 20.8896V37H0V24.2812C0 17.3951 0.818625 12.4104 2.45588 9.32708C4.60477 5.21597 8.00718 2.10694 12.6631 0L16.0399 5.39583C13.2259 6.57778 11.1538 8.35069 9.8235 10.7146C8.49324 13.0271 7.75136 16.4187 7.59786 20.8896H14.812ZM33.7721 20.8896V37H18.9601V24.2812C18.9601 17.3951 19.7787 12.4104 21.4159 9.32708C23.5648 5.21597 26.9672 2.10694 31.6232 0L35 5.39583C32.186 6.57778 30.1138 8.35069 28.7836 10.7146C27.4533 13.0271 26.7114 16.4187 26.5579 20.8896H33.7721Z" fill="white" fill-opacity="0.2"/>
</svg>
